<?xml version="1.0" encoding="utf-8"?>
<!-- Generator: Adobe Illustrator 27.8.1, SVG Export Plug-In . SVG Version: 6.00 Build 0)  -->
<svg version="1.1" xmlns="http://www.w3.org/2000/svg" xmlns:xlink="http://www.w3.org/1999/xlink" x="0px" y="0px"
	 viewBox="0 0 576 576" style="enable-background:new 0 0 576 576;" xml:space="preserve">
<style type="text/css">
	.st0{display:none;}
	.st1{fill:none;}
	.st2{fill:#FFFFFF;}
	.st3{font-family:'AvenirNext-Bold';}
	.st4{font-size:56.574px;}
</style>
<g id="Layer_1" class="st0">
</g>
<g id="Layer_3">
	<rect x="-55.52" y="-54.39" class="st1" width="683.97" height="683.97"/>
	<rect x="118.36" y="391.14" class="st1" width="246.89" height="116.66"/>
	<text transform="matrix(1 0 0 1 118.3606 433.9124)"><tspan x="0" y="0" class="st2 st3 st4">CRYPTO</tspan><tspan x="0" y="67.89" class="st2 st3 st4">CLUB</tspan></text>
	<path class="st2" d="M450.62,170.64c-17.13-10.09-36.74-15.43-56.7-15.43c-61.65,0-111.81,50.16-111.81,111.81
		c0,51.88,35.52,95.62,83.52,108.18v129.43h56.57V322.24h-28.29c-30.45,0-55.23-24.78-55.23-55.23c0-30.45,24.78-55.23,55.23-55.23
		c19.65,0,37.99,10.58,47.85,27.62l48.96-28.34C481.08,194.39,467.21,180.41,450.62,170.64z M394.17,410.09
		c1.48,0,2.68,1.2,2.68,2.68c0,1.48-1.2,2.68-2.68,2.68s-2.68-1.2-2.68-2.68C391.49,411.29,392.69,410.09,394.17,410.09z
		 M393.92,438.68c2.23,0,4.05,1.81,4.05,4.05c0,2.24-1.81,4.05-4.05,4.05s-4.05-1.81-4.05-4.05
		C389.87,440.49,391.68,438.68,393.92,438.68z M393.92,470c4.39,0,7.94,3.56,7.94,7.94c0,4.39-3.56,7.94-7.94,7.94
		s-7.94-3.56-7.94-7.94C385.97,473.56,389.53,470,393.92,470z"/>
	<path class="st2" d="M213.13,169.13v123.84c0,16.14-13.13,29.27-29.27,29.27c-16.14,0-29.27-13.13-29.27-29.27V63.61H98.02v229.37
		c0,47.33,38.51,85.84,85.84,85.84s85.84-38.51,85.84-85.84V169.13H213.13z M126.56,158.14c-1.48,0-2.68-1.2-2.68-2.68
		c0-1.48,1.2-2.68,2.68-2.68c1.48,0,2.68,1.2,2.68,2.68C129.24,156.94,128.04,158.14,126.56,158.14z M126.3,129.55
		c-2.24,0-4.05-1.81-4.05-4.05c0-2.24,1.81-4.05,4.05-4.05c2.23,0,4.05,1.81,4.05,4.05C130.35,127.74,128.54,129.55,126.3,129.55z
		 M126.3,98.23c-4.39,0-7.94-3.56-7.94-7.94c0-4.39,3.56-7.94,7.94-7.94c4.39,0,7.94,3.56,7.94,7.94
		C134.25,94.68,130.69,98.23,126.3,98.23z"/>
</g>
</svg>
